# xmcd
#
# Track frame offsets:
#	150
#	13739
#	26234
#	39720
#	50109
#	60330
#	73420
#	87024
#	99908
#	114894
#	125394
#	135299
#	146767
#	158816
#	171169
#	183706
#	197688
#	212087
#	226253
#	240144
#	263598
#
# Disc length: 4440 seconds
#
# Revision: 2
# Processed by: cddbd v1.4PL0 Copyright (c) Steve Scherf et al.
# Submitted via: MusicManager 7.0.3.0 
#
DISCID=1e115615
DTITLE=Salvatore Adamo - C'est ma vie
DYEAR=2003
DGENRE=
TTITLE0=Tombe la neige
TTITLE1=Sans toi,ma vie
TTITLE2=En blue jeans et blouson d'cuir
TTITLE3=N'est-ce pas merveilleux ?
TTITLE4=Crier ton nom
TTITLE5=Amour perdu
TTITLE6=Vous permettez,Monsieur ?
TTITLE7=Les filles du bord de mer
TTITLE8=La nuit
TTITLE9=Dolce Paola
TTITLE10=A vot' bon coeur
TTITLE11=Quand les roses
TTITLE12=Le barbu sans barbe
TTITLE13=Ma tête
TTITLE14=Si jamais
TTITLE15=Elle. . .
TTITLE16=Ballade à la pluie
TTITLE17=Viens ma brune
TTITLE18=J'aime
TTITLE19=Comme toujours
TTITLE20=Piste de données
EXTD=
EXTT0=
EXTT1=
EXTT2=
EXTT3=
EXTT4=
EXTT5=
EXTT6=
EXTT7=
EXTT8=
EXTT9=
EXTT10=
EXTT11=
EXTT12=
EXTT13=
EXTT14=
EXTT15=
EXTT16=
EXTT17=
EXTT18=
EXTT19=
EXTT20=
PLAYORDER=
